<svg width="114" height="20" viewBox="0 0 114 20" fill="none" xmlns="http://www.w3.org/2000/svg">
<path d="M20.1887 7.3579C20.1195 7.13939 19.9862 6.9467 19.8062 6.80479C19.6262 6.66288 19.4077 6.57829 19.1791 6.56197L13.4162 6.09322L11.1962 0.718531C11.1088 0.505961 10.9602 0.324169 10.7692 0.196236C10.5783 0.0683027 10.3536 0 10.1237 0C9.89389 0 9.66922 0.0683027 9.47827 0.196236C9.28731 0.324169 9.13868 0.505961 9.05124 0.718531L6.83124 6.09322L1.06843 6.56197C0.839417 6.58142 0.621243 6.66804 0.441266 6.81099C0.261289 6.95393 0.12752 7.14683 0.0567346 7.3655C-0.0140511 7.58416 -0.0187031 7.81886 0.0433619 8.04016C0.105427 8.26145 0.231446 8.4595 0.405617 8.60947L4.7978 12.3979L3.4553 18.0595C3.39908 18.2833 3.41102 18.5188 3.4896 18.7358C3.56818 18.9528 3.70981 19.1413 3.8963 19.2772C4.0828 19.4132 4.30567 19.4902 4.53629 19.4986C4.76691 19.507 4.99477 19.4462 5.19062 19.3242L10.1237 16.2904L15.0569 19.3242C15.2507 19.4466 15.4769 19.5075 15.706 19.499C15.935 19.4904 16.1562 19.4128 16.3403 19.2763C16.5296 19.1424 16.6741 18.9543 16.7547 18.7368C16.8353 18.5194 16.8484 18.2826 16.7922 18.0576L15.4497 12.3932L19.8419 8.60478C20.0179 8.45558 20.1451 8.25696 20.2069 8.03465C20.2688 7.81234 20.2624 7.57658 20.1887 7.3579ZM19.3516 8.03853L14.7878 11.976C14.7358 12.0209 14.6972 12.0791 14.676 12.1444C14.6548 12.2097 14.652 12.2795 14.6678 12.3463L16.0619 18.2329C16.0823 18.3133 16.0778 18.3981 16.049 18.476C16.0203 18.5538 15.9685 18.6211 15.9006 18.6688C15.836 18.717 15.7583 18.7445 15.6778 18.7475C15.5972 18.7505 15.5177 18.7289 15.4497 18.6857L10.3206 15.531C10.2614 15.4945 10.1933 15.4752 10.1237 15.4752C10.0542 15.4752 9.98605 15.4945 9.92687 15.531L4.7978 18.6857C4.72979 18.7289 4.65024 18.7505 4.56971 18.7475C4.48917 18.7445 4.41146 18.717 4.34687 18.6688C4.27899 18.6211 4.22723 18.5538 4.19844 18.476C4.16964 18.3981 4.16517 18.3133 4.18562 18.2329L5.57968 12.3463C5.59548 12.2795 5.59265 12.2097 5.57149 12.1444C5.55033 12.0791 5.51166 12.0209 5.45968 11.976L0.895929 8.03853C0.832882 7.98538 0.787342 7.91444 0.765263 7.83499C0.743184 7.75554 0.745595 7.67128 0.772179 7.59322C0.796627 7.51591 0.843765 7.44775 0.907466 7.39759C0.971167 7.34743 1.04848 7.3176 1.12937 7.31197L7.12374 6.82353C7.19269 6.81805 7.25878 6.79361 7.3147 6.75291C7.37063 6.71221 7.41421 6.65683 7.44062 6.59291L9.74874 1.00541C9.77898 0.929665 9.83123 0.864728 9.89874 0.818983C9.96626 0.773239 10.0459 0.748787 10.1275 0.748787C10.209 0.748787 10.2887 0.773239 10.3562 0.818983C10.4238 0.864728 10.476 0.929665 10.5062 1.00541L12.8144 6.59291C12.8402 6.65577 12.8826 6.71044 12.9371 6.75106C12.9916 6.79169 13.0561 6.81673 13.1237 6.82353L19.1144 7.30634C19.1952 7.31198 19.2726 7.34181 19.3363 7.39197C19.4 7.44213 19.4471 7.51029 19.4716 7.58759C19.4998 7.66604 19.5035 7.75124 19.482 7.83182C19.4606 7.91239 19.4151 7.98451 19.3516 8.03853Z" fill="black"/>
<path d="M19.3516 8.03853L14.7878 11.976C14.7358 12.0209 14.6972 12.0791 14.676 12.1444C14.6548 12.2097 14.652 12.2795 14.6678 12.3463L16.0619 18.2329C16.0823 18.3133 16.0778 18.3981 16.049 18.476C16.0203 18.5538 15.9685 18.6211 15.9006 18.6688C15.836 18.717 15.7583 18.7445 15.6778 18.7475C15.5972 18.7505 15.5177 18.7289 15.4497 18.6857L10.3206 15.531C10.2614 15.4945 10.1933 15.4752 10.1237 15.4752C10.0542 15.4752 9.98605 15.4945 9.92687 15.531L4.7978 18.6857C4.72979 18.7289 4.65024 18.7505 4.56971 18.7475C4.48917 18.7445 4.41146 18.717 4.34687 18.6688C4.27899 18.6211 4.22723 18.5538 4.19844 18.476C4.16964 18.3981 4.16517 18.3133 4.18562 18.2329L5.57968 12.3463C5.59548 12.2795 5.59265 12.2097 5.57149 12.1444C5.55033 12.0791 5.51166 12.0209 5.45968 11.976L0.895929 8.03853C0.832882 7.98538 0.787342 7.91444 0.765263 7.83499C0.743184 7.75554 0.745595 7.67128 0.772179 7.59322C0.796627 7.51591 0.843765 7.44775 0.907466 7.39759C0.971167 7.34743 1.04848 7.3176 1.12937 7.31197L7.12374 6.82353C7.19269 6.81805 7.25878 6.79361 7.3147 6.75291C7.37063 6.71221 7.41421 6.65683 7.44062 6.59291L9.74874 1.00541C9.77898 0.929665 9.83123 0.864728 9.89874 0.818983C9.96626 0.773239 10.0459 0.748787 10.1275 0.748787C10.209 0.748787 10.2887 0.773239 10.3562 0.818983C10.4238 0.864728 10.476 0.929665 10.5062 1.00541L12.8144 6.59291C12.8402 6.65577 12.8826 6.71044 12.9371 6.75106C12.9916 6.79169 13.0561 6.81673 13.1237 6.82353L19.1144 7.30634C19.1952 7.31198 19.2726 7.34181 19.3363 7.39197C19.4 7.44213 19.4471 7.51029 19.4716 7.58759C19.4998 7.66604 19.5035 7.75124 19.482 7.83182C19.4606 7.91239 19.4151 7.98451 19.3516 8.03853Z" fill="black"/>
<path d="M43.4378 7.3579C43.3685 7.13939 43.2352 6.9467 43.0552 6.80479C42.8752 6.66288 42.6567 6.57829 42.4281 6.56197L36.6653 6.09322L34.4453 0.718531C34.3578 0.505961 34.2092 0.324169 34.0182 0.196236C33.8273 0.0683027 33.6026 0 33.3728 0C33.1429 0 32.9182 0.0683027 32.7273 0.196236C32.5363 0.324169 32.3877 0.505961 32.3003 0.718531L30.0803 6.09322L24.3175 6.56197C24.0884 6.58142 23.8703 6.66804 23.6903 6.81099C23.5103 6.95393 23.3765 7.14683 23.3058 7.3655C23.235 7.58416 23.2303 7.81886 23.2924 8.04016C23.3545 8.26145 23.4805 8.4595 23.6546 8.60947L28.0468 12.3979L26.7043 18.0595C26.6481 18.2833 26.66 18.5188 26.7386 18.7358C26.8172 18.9528 26.9588 19.1413 27.1453 19.2772C27.3318 19.4132 27.5547 19.4902 27.7853 19.4986C28.0159 19.507 28.2438 19.4462 28.4396 19.3242L33.3728 16.2904L38.3059 19.3242C38.4997 19.4466 38.726 19.5075 38.955 19.499C39.1841 19.4904 39.4052 19.4128 39.5893 19.2763C39.7787 19.1424 39.9231 18.9543 40.0037 18.7368C40.0844 18.5194 40.0974 18.2826 40.0412 18.0576L38.6987 12.3932L43.0909 8.60478C43.2669 8.45558 43.3941 8.25696 43.4559 8.03465C43.5178 7.81234 43.5115 7.57658 43.4378 7.3579ZM42.6006 8.03853L38.0368 11.976C37.9848 12.0209 37.9462 12.0791 37.925 12.1444C37.9039 12.2097 37.901 12.2795 37.9168 12.3463L39.3109 18.2329C39.3313 18.3133 39.3269 18.3981 39.2981 18.476C39.2693 18.5538 39.2175 18.6211 39.1496 18.6688C39.085 18.717 39.0073 18.7445 38.9268 18.7475C38.8463 18.7505 38.7667 18.7289 38.6987 18.6857L33.5696 15.531C33.5105 15.4945 33.4423 15.4752 33.3728 15.4752C33.3032 15.4752 33.2351 15.4945 33.1759 15.531L28.0468 18.6857C27.9788 18.7289 27.8993 18.7505 27.8187 18.7475C27.7382 18.7445 27.6605 18.717 27.5959 18.6688C27.528 18.6211 27.4763 18.5538 27.4475 18.476C27.4187 18.3981 27.4142 18.3133 27.4346 18.2329L28.8287 12.3463C28.8445 12.2795 28.8417 12.2097 28.8205 12.1444C28.7994 12.0791 28.7607 12.0209 28.7087 11.976L24.145 8.03853C24.0819 7.98538 24.0364 7.91444 24.0143 7.83499C23.9922 7.75554 23.9946 7.67128 24.0212 7.59322C24.0457 7.51591 24.0928 7.44775 24.1565 7.39759C24.2202 7.34743 24.2975 7.3176 24.3784 7.31197L30.3728 6.82353C30.4417 6.81805 30.5078 6.79361 30.5637 6.75291C30.6197 6.71221 30.6632 6.65683 30.6896 6.59291L32.9978 1.00541C33.028 0.929665 33.0803 0.864728 33.1478 0.818983C33.2153 0.773239 33.295 0.748787 33.3765 0.748787C33.4581 0.748787 33.5377 0.773239 33.6053 0.818983C33.6728 0.864728 33.725 0.929665 33.7553 1.00541L36.0634 6.59291C36.0892 6.65577 36.1316 6.71044 36.1861 6.75106C36.2406 6.79169 36.3051 6.81673 36.3728 6.82353L42.3634 7.30634C42.4443 7.31198 42.5216 7.34181 42.5853 7.39197C42.649 7.44213 42.6961 7.51029 42.7206 7.58759C42.7488 7.66604 42.7525 7.75124 42.7311 7.83182C42.7096 7.91239 42.6641 7.98451 42.6006 8.03853Z" fill="black"/>
<path d="M42.6006 8.03853L38.0368 11.976C37.9848 12.0209 37.9462 12.0791 37.925 12.1444C37.9039 12.2097 37.901 12.2795 37.9168 12.3463L39.3109 18.2329C39.3313 18.3133 39.3269 18.3981 39.2981 18.476C39.2693 18.5538 39.2175 18.6211 39.1496 18.6688C39.085 18.717 39.0073 18.7445 38.9268 18.7475C38.8463 18.7505 38.7667 18.7289 38.6987 18.6857L33.5696 15.531C33.5105 15.4945 33.4423 15.4752 33.3728 15.4752C33.3032 15.4752 33.2351 15.4945 33.1759 15.531L28.0468 18.6857C27.9788 18.7289 27.8993 18.7505 27.8187 18.7475C27.7382 18.7445 27.6605 18.717 27.5959 18.6688C27.528 18.6211 27.4763 18.5538 27.4475 18.476C27.4187 18.3981 27.4142 18.3133 27.4346 18.2329L28.8287 12.3463C28.8445 12.2795 28.8417 12.2097 28.8205 12.1444C28.7994 12.0791 28.7607 12.0209 28.7087 11.976L24.145 8.03853C24.0819 7.98538 24.0364 7.91444 24.0143 7.83499C23.9922 7.75554 23.9946 7.67128 24.0212 7.59322C24.0457 7.51591 24.0928 7.44775 24.1565 7.39759C24.2202 7.34743 24.2975 7.3176 24.3784 7.31197L30.3728 6.82353C30.4417 6.81805 30.5078 6.79361 30.5637 6.75291C30.6197 6.71221 30.6632 6.65683 30.6896 6.59291L32.9978 1.00541C33.028 0.929665 33.0803 0.864728 33.1478 0.818983C33.2153 0.773239 33.295 0.748787 33.3765 0.748787C33.4581 0.748787 33.5377 0.773239 33.6053 0.818983C33.6728 0.864728 33.725 0.929665 33.7553 1.00541L36.0634 6.59291C36.0892 6.65577 36.1316 6.71044 36.1861 6.75106C36.2406 6.79169 36.3051 6.81673 36.3728 6.82353L42.3634 7.30634C42.4443 7.31198 42.5216 7.34181 42.5853 7.39197C42.649 7.44213 42.6961 7.51029 42.7206 7.58759C42.7488 7.66604 42.7525 7.75124 42.7311 7.83182C42.7096 7.91239 42.6641 7.98451 42.6006 8.03853Z" fill="black"/>
<path d="M66.6868 7.3579C66.6175 7.13939 66.4843 6.9467 66.3042 6.80479C66.1242 6.66288 65.9057 6.57829 65.6771 6.56197L59.9143 6.09322L57.6943 0.718531C57.6069 0.505961 57.4582 0.324169 57.2673 0.196236C57.0763 0.0683027 56.8516 0 56.6218 0C56.3919 0 56.1673 0.0683027 55.9763 0.196236C55.7854 0.324169 55.6367 0.505961 55.5493 0.718531L53.3293 6.09322L47.5665 6.56197C47.3375 6.58142 47.1193 6.66804 46.9393 6.81099C46.7593 6.95393 46.6256 7.14683 46.5548 7.3655C46.484 7.58416 46.4793 7.81886 46.5414 8.04016C46.6035 8.26145 46.7295 8.4595 46.9037 8.60947L51.2959 12.3979L49.9534 18.0595C49.8971 18.2833 49.9091 18.5188 49.9876 18.7358C50.0662 18.9528 50.2079 19.1413 50.3944 19.2772C50.5809 19.4132 50.8037 19.4902 51.0343 19.4986C51.265 19.507 51.4928 19.4462 51.6887 19.3242L56.6218 16.2904L61.5549 19.3242C61.7487 19.4466 61.975 19.5075 62.204 19.499C62.4331 19.4904 62.6542 19.4128 62.8384 19.2763C63.0277 19.1424 63.1721 18.9543 63.2527 18.7368C63.3334 18.5194 63.3464 18.2826 63.2902 18.0576L61.9477 12.3932L66.3399 8.60478C66.5159 8.45558 66.6431 8.25696 66.705 8.03465C66.7668 7.81234 66.7605 7.57658 66.6868 7.3579ZM65.8496 8.03853L61.2859 11.976C61.2339 12.0209 61.1952 12.0791 61.174 12.1444C61.1529 12.2097 61.15 12.2795 61.1659 12.3463L62.5599 18.2329C62.5804 18.3133 62.5759 18.3981 62.5471 18.476C62.5183 18.5538 62.4665 18.6211 62.3987 18.6688C62.3341 18.717 62.2564 18.7445 62.1758 18.7475C62.0953 18.7505 62.0157 18.7289 61.9477 18.6857L56.8187 15.531C56.7595 15.4945 56.6913 15.4752 56.6218 15.4752C56.5523 15.4752 56.4841 15.4945 56.4249 15.531L51.2959 18.6857C51.2278 18.7289 51.1483 18.7505 51.0678 18.7475C50.9872 18.7445 50.9095 18.717 50.8449 18.6688C50.777 18.6211 50.7253 18.5538 50.6965 18.476C50.6677 18.3981 50.6632 18.3133 50.6837 18.2329L52.0777 12.3463C52.0935 12.2795 52.0907 12.2097 52.0695 12.1444C52.0484 12.0791 52.0097 12.0209 51.9577 11.976L47.394 8.03853C47.3309 7.98538 47.2854 7.91444 47.2633 7.83499C47.2412 7.75554 47.2436 7.67128 47.2702 7.59322C47.2947 7.51591 47.3418 7.44775 47.4055 7.39759C47.4692 7.34743 47.5465 7.3176 47.6274 7.31197L53.6218 6.82353C53.6907 6.81805 53.7568 6.79361 53.8128 6.75291C53.8687 6.71221 53.9123 6.65683 53.9387 6.59291L56.2468 1.00541C56.277 0.929665 56.3293 0.864728 56.3968 0.818983C56.4643 0.773239 56.544 0.748787 56.6255 0.748787C56.7071 0.748787 56.7868 0.773239 56.8543 0.818983C56.9218 0.864728 56.9741 0.929665 57.0043 1.00541L59.3124 6.59291C59.3382 6.65577 59.3807 6.71044 59.4352 6.75106C59.4897 6.79169 59.5542 6.81673 59.6218 6.82353L65.6124 7.30634C65.6933 7.31198 65.7706 7.34181 65.8343 7.39197C65.898 7.44213 65.9452 7.51029 65.9696 7.58759C65.9979 7.66604 66.0015 7.75124 65.9801 7.83182C65.9586 7.91239 65.9131 7.98451 65.8496 8.03853Z" fill="black"/>
<path d="M65.8496 8.03853L61.2859 11.976C61.2339 12.0209 61.1952 12.0791 61.174 12.1444C61.1529 12.2097 61.15 12.2795 61.1659 12.3463L62.5599 18.2329C62.5804 18.3133 62.5759 18.3981 62.5471 18.476C62.5183 18.5538 62.4665 18.6211 62.3987 18.6688C62.3341 18.717 62.2564 18.7445 62.1758 18.7475C62.0953 18.7505 62.0157 18.7289 61.9477 18.6857L56.8187 15.531C56.7595 15.4945 56.6913 15.4752 56.6218 15.4752C56.5523 15.4752 56.4841 15.4945 56.4249 15.531L51.2959 18.6857C51.2278 18.7289 51.1483 18.7505 51.0678 18.7475C50.9872 18.7445 50.9095 18.717 50.8449 18.6688C50.777 18.6211 50.7253 18.5538 50.6965 18.476C50.6677 18.3981 50.6632 18.3133 50.6837 18.2329L52.0777 12.3463C52.0935 12.2795 52.0907 12.2097 52.0695 12.1444C52.0484 12.0791 52.0097 12.0209 51.9577 11.976L47.394 8.03853C47.3309 7.98538 47.2854 7.91444 47.2633 7.83499C47.2412 7.75554 47.2436 7.67128 47.2702 7.59322C47.2947 7.51591 47.3418 7.44775 47.4055 7.39759C47.4692 7.34743 47.5465 7.3176 47.6274 7.31197L53.6218 6.82353C53.6907 6.81805 53.7568 6.79361 53.8128 6.75291C53.8687 6.71221 53.9123 6.65683 53.9387 6.59291L56.2468 1.00541C56.277 0.929665 56.3293 0.864728 56.3968 0.818983C56.4643 0.773239 56.544 0.748787 56.6255 0.748787C56.7071 0.748787 56.7868 0.773239 56.8543 0.818983C56.9218 0.864728 56.9741 0.929665 57.0043 1.00541L59.3124 6.59291C59.3382 6.65577 59.3807 6.71044 59.4352 6.75106C59.4897 6.79169 59.5542 6.81673 59.6218 6.82353L65.6124 7.30634C65.6933 7.31198 65.7706 7.34181 65.8343 7.39197C65.898 7.44213 65.9452 7.51029 65.9696 7.58759C65.9979 7.66604 66.0015 7.75124 65.9801 7.83182C65.9586 7.91239 65.9131 7.98451 65.8496 8.03853Z" fill="black"/>
<path d="M89.9358 7.3579C89.8666 7.13939 89.7333 6.9467 89.5533 6.80479C89.3733 6.66288 89.1548 6.57829 88.9261 6.56197L83.1633 6.09322L80.9433 0.718531C80.8559 0.505961 80.7072 0.324169 80.5163 0.196236C80.3253 0.0683027 80.1007 0 79.8708 0C79.641 0 79.4163 0.0683027 79.2253 0.196236C79.0344 0.324169 78.8857 0.505961 78.7983 0.718531L76.5783 6.09322L70.8155 6.56197C70.5865 6.58142 70.3683 6.66804 70.1883 6.81099C70.0084 6.95393 69.8746 7.14683 69.8038 7.3655C69.733 7.58416 69.7284 7.81886 69.7904 8.04016C69.8525 8.26145 69.9785 8.4595 70.1527 8.60947L74.5449 12.3979L73.2024 18.0595C73.1462 18.2833 73.1581 18.5188 73.2367 18.7358C73.3152 18.9528 73.4569 19.1413 73.6434 19.2772C73.8299 19.4132 74.0527 19.4902 74.2834 19.4986C74.514 19.507 74.7418 19.4462 74.9377 19.3242L79.8708 16.2904L84.8039 19.3242C84.9977 19.4466 85.224 19.5075 85.4531 19.499C85.6821 19.4904 85.9032 19.4128 86.0874 19.2763C86.2767 19.1424 86.4211 18.9543 86.5018 18.7368C86.5824 18.5194 86.5955 18.2826 86.5393 18.0576L85.1967 12.3932L89.5889 8.60478C89.765 8.45558 89.8921 8.25696 89.954 8.03465C90.0158 7.81234 90.0095 7.57658 89.9358 7.3579ZM89.0986 8.03853L84.5349 11.976C84.4829 12.0209 84.4442 12.0791 84.4231 12.1444C84.4019 12.2097 84.3991 12.2795 84.4149 12.3463L85.8089 18.2329C85.8294 18.3133 85.8249 18.3981 85.7961 18.476C85.7673 18.5538 85.7156 18.6211 85.6477 18.6688C85.5831 18.717 85.5054 18.7445 85.4248 18.7475C85.3443 18.7505 85.2648 18.7289 85.1967 18.6857L80.0677 15.531C80.0085 15.4945 79.9403 15.4752 79.8708 15.4752C79.8013 15.4752 79.7331 15.4945 79.6739 15.531L74.5449 18.6857C74.4769 18.7289 74.3973 18.7505 74.3168 18.7475C74.2362 18.7445 74.1585 18.717 74.0939 18.6688C74.0261 18.6211 73.9743 18.5538 73.9455 18.476C73.9167 18.3981 73.9122 18.3133 73.9327 18.2329L75.3267 12.3463C75.3426 12.2795 75.3397 12.2097 75.3186 12.1444C75.2974 12.0791 75.2587 12.0209 75.2067 11.976L70.643 8.03853C70.58 7.98538 70.5344 7.91444 70.5123 7.83499C70.4903 7.75554 70.4927 7.67128 70.5192 7.59322C70.5437 7.51591 70.5908 7.44775 70.6545 7.39759C70.7182 7.34743 70.7956 7.3176 70.8764 7.31197L76.8708 6.82353C76.9398 6.81805 77.0059 6.79361 77.0618 6.75291C77.1177 6.71221 77.1613 6.65683 77.1877 6.59291L79.4958 1.00541C79.526 0.929665 79.5783 0.864728 79.6458 0.818983C79.7133 0.773239 79.793 0.748787 79.8746 0.748787C79.9561 0.748787 80.0358 0.773239 80.1033 0.818983C80.1708 0.864728 80.2231 0.929665 80.2533 1.00541L82.5614 6.59291C82.5873 6.65577 82.6297 6.71044 82.6842 6.75106C82.7387 6.79169 82.8032 6.81673 82.8708 6.82353L88.8614 7.30634C88.9423 7.31198 89.0196 7.34181 89.0833 7.39197C89.147 7.44213 89.1942 7.51029 89.2186 7.58759C89.2469 7.66604 89.2505 7.75124 89.2291 7.83182C89.2077 7.91239 89.1621 7.98451 89.0986 8.03853Z" fill="black"/>
<path d="M89.0986 8.03853L84.5349 11.976C84.4829 12.0209 84.4442 12.0791 84.4231 12.1444C84.4019 12.2097 84.3991 12.2795 84.4149 12.3463L85.8089 18.2329C85.8294 18.3133 85.8249 18.3981 85.7961 18.476C85.7673 18.5538 85.7156 18.6211 85.6477 18.6688C85.5831 18.717 85.5054 18.7445 85.4248 18.7475C85.3443 18.7505 85.2648 18.7289 85.1967 18.6857L80.0677 15.531C80.0085 15.4945 79.9403 15.4752 79.8708 15.4752C79.8013 15.4752 79.7331 15.4945 79.6739 15.531L74.5449 18.6857C74.4769 18.7289 74.3973 18.7505 74.3168 18.7475C74.2362 18.7445 74.1585 18.717 74.0939 18.6688C74.0261 18.6211 73.9743 18.5538 73.9455 18.476C73.9167 18.3981 73.9122 18.3133 73.9327 18.2329L75.3267 12.3463C75.3426 12.2795 75.3397 12.2097 75.3186 12.1444C75.2974 12.0791 75.2587 12.0209 75.2067 11.976L70.643 8.03853C70.58 7.98538 70.5344 7.91444 70.5123 7.83499C70.4903 7.75554 70.4927 7.67128 70.5192 7.59322C70.5437 7.51591 70.5908 7.44775 70.6545 7.39759C70.7182 7.34743 70.7956 7.3176 70.8764 7.31197L76.8708 6.82353C76.9398 6.81805 77.0059 6.79361 77.0618 6.75291C77.1177 6.71221 77.1613 6.65683 77.1877 6.59291L79.4958 1.00541C79.526 0.929665 79.5783 0.864728 79.6458 0.818983C79.7133 0.773239 79.793 0.748787 79.8746 0.748787C79.9561 0.748787 80.0358 0.773239 80.1033 0.818983C80.1708 0.864728 80.2231 0.929665 80.2533 1.00541L82.5614 6.59291C82.5873 6.65577 82.6297 6.71044 82.6842 6.75106C82.7387 6.79169 82.8032 6.81673 82.8708 6.82353L88.8614 7.30634C88.9423 7.31198 89.0196 7.34181 89.0833 7.39197C89.147 7.44213 89.1942 7.51029 89.2186 7.58759C89.2469 7.66604 89.2505 7.75124 89.2291 7.83182C89.2077 7.91239 89.1621 7.98451 89.0986 8.03853Z" fill="black"/>
<path d="M113.185 7.3579C113.116 7.13939 112.982 6.9467 112.802 6.80479C112.622 6.66288 112.404 6.57829 112.175 6.56197L106.412 6.09322L104.192 0.718531C104.105 0.505961 103.956 0.324169 103.765 0.196236C103.574 0.0683027 103.35 0 103.12 0C102.89 0 102.665 0.0683027 102.474 0.196236C102.283 0.324169 102.135 0.505961 102.047 0.718531L99.8273 6.09322L94.0645 6.56197C93.8355 6.58142 93.6173 6.66804 93.4374 6.81099C93.2574 6.95393 93.1236 7.14683 93.0528 7.3655C92.982 7.58416 92.9774 7.81886 93.0395 8.04016C93.1015 8.26145 93.2275 8.4595 93.4017 8.60947L97.7939 12.3979L96.4514 18.0595C96.3952 18.2833 96.4071 18.5188 96.4857 18.7358C96.5643 18.9528 96.7059 19.1413 96.8924 19.2772C97.0789 19.4132 97.3018 19.4902 97.5324 19.4986C97.763 19.507 97.9909 19.4462 98.1867 19.3242L103.12 16.2904L108.053 19.3242C108.247 19.4466 108.473 19.5075 108.702 19.499C108.931 19.4904 109.152 19.4128 109.336 19.2763C109.526 19.1424 109.67 18.9543 109.751 18.7368C109.831 18.5194 109.844 18.2826 109.788 18.0576L108.446 12.3932L112.838 8.60478C113.014 8.45558 113.141 8.25696 113.203 8.03465C113.265 7.81234 113.259 7.57658 113.185 7.3579ZM112.348 8.03853L107.784 11.976C107.732 12.0209 107.693 12.0791 107.672 12.1444C107.651 12.2097 107.648 12.2795 107.664 12.3463L109.058 18.2329C109.078 18.3133 109.074 18.3981 109.045 18.476C109.016 18.5538 108.965 18.6211 108.897 18.6688C108.832 18.717 108.754 18.7445 108.674 18.7475C108.593 18.7505 108.514 18.7289 108.446 18.6857L103.317 15.531C103.258 15.4945 103.189 15.4752 103.12 15.4752C103.05 15.4752 102.982 15.4945 102.923 15.531L97.7939 18.6857C97.7259 18.7289 97.6463 18.7505 97.5658 18.7475C97.4853 18.7445 97.4076 18.717 97.343 18.6688C97.2751 18.6211 97.2233 18.5538 97.1945 18.476C97.1657 18.3981 97.1613 18.3133 97.1817 18.2329L98.5758 12.3463C98.5916 12.2795 98.5887 12.2097 98.5676 12.1444C98.5464 12.0791 98.5078 12.0209 98.4558 11.976L93.892 8.03853C93.829 7.98538 93.7834 7.91444 93.7614 7.83499C93.7393 7.75554 93.7417 7.67128 93.7683 7.59322C93.7927 7.51591 93.8399 7.44775 93.9036 7.39759C93.9673 7.34743 94.0446 7.3176 94.1255 7.31197L100.12 6.82353C100.189 6.81805 100.255 6.79361 100.311 6.75291C100.367 6.71221 100.41 6.65683 100.437 6.59291L102.745 1.00541C102.775 0.929665 102.827 0.864728 102.895 0.818983C102.962 0.773239 103.042 0.748787 103.124 0.748787C103.205 0.748787 103.285 0.773239 103.352 0.818983C103.42 0.864728 103.472 0.929665 103.502 1.00541L105.81 6.59291C105.836 6.65577 105.879 6.71044 105.933 6.75106C105.988 6.79169 106.052 6.81673 106.12 6.82353L112.11 7.30634C112.191 7.31198 112.269 7.34181 112.332 7.39197C112.396 7.44213 112.443 7.51029 112.468 7.58759C112.496 7.66604 112.5 7.75124 112.478 7.83182C112.457 7.91239 112.411 7.98451 112.348 8.03853Z" fill="black"/>
<path d="M112.348 8.03853L107.784 11.976C107.732 12.0209 107.693 12.0791 107.672 12.1444C107.651 12.2097 107.648 12.2795 107.664 12.3463L109.058 18.2329C109.078 18.3133 109.074 18.3981 109.045 18.476C109.016 18.5538 108.965 18.6211 108.897 18.6688C108.832 18.717 108.754 18.7445 108.674 18.7475C108.593 18.7505 108.514 18.7289 108.446 18.6857L103.317 15.531C103.258 15.4945 103.189 15.4752 103.12 15.4752C103.05 15.4752 102.982 15.4945 102.923 15.531L97.7939 18.6857C97.7259 18.7289 97.6463 18.7505 97.5658 18.7475C97.4853 18.7445 97.4076 18.717 97.343 18.6688C97.2751 18.6211 97.2233 18.5538 97.1945 18.476C97.1657 18.3981 97.1613 18.3133 97.1817 18.2329L98.5758 12.3463C98.5916 12.2795 98.5887 12.2097 98.5676 12.1444C98.5464 12.0791 98.5078 12.0209 98.4558 11.976L93.892 8.03853C93.829 7.98538 93.7834 7.91444 93.7614 7.83499C93.7393 7.75554 93.7417 7.67128 93.7683 7.59322C93.7927 7.51591 93.8399 7.44775 93.9036 7.39759C93.9673 7.34743 94.0446 7.3176 94.1255 7.31197L100.12 6.82353C100.189 6.81805 100.255 6.79361 100.311 6.75291C100.367 6.71221 100.41 6.65683 100.437 6.59291L102.745 1.00541C102.775 0.929665 102.827 0.864728 102.895 0.818983C102.962 0.773239 103.042 0.748787 103.124 0.748787C103.205 0.748787 103.285 0.773239 103.352 0.818983C103.42 0.864728 103.472 0.929665 103.502 1.00541L105.81 6.59291C105.836 6.65577 105.879 6.71044 105.933 6.75106C105.988 6.79169 106.052 6.81673 106.12 6.82353L112.11 7.30634C112.191 7.31198 112.269 7.34181 112.332 7.39197C112.396 7.44213 112.443 7.51029 112.468 7.58759C112.496 7.66604 112.5 7.75124 112.478 7.83182C112.457 7.91239 112.411 7.98451 112.348 8.03853Z" fill="black"/>
</svg>
