<svg width="18" height="15" viewBox="0 0 18 15" fill="none" xmlns="http://www.w3.org/2000/svg">
<path d="M6.91451 14.446L0.164513 7.69597C0.0591755 7.5905 7.62939e-06 7.44753 7.62939e-06 7.29847C7.62939e-06 7.14941 0.0591755 7.00644 0.164513 6.90097L6.91451 0.150969C7.02114 0.0516087 7.16218 -0.00248353 7.3079 8.76355e-05C7.45363 0.0026588 7.59267 0.0616926 7.69573 0.164752C7.79879 0.267812 7.85782 0.406851 7.86039 0.552577C7.86296 0.698303 7.80887 0.839338 7.70951 0.945969L1.92045 6.73597L17.062 6.73597C17.2112 6.73597 17.3543 6.79523 17.4598 6.90072C17.5652 7.00621 17.6245 7.14928 17.6245 7.29847C17.6245 7.44765 17.5652 7.59073 17.4598 7.69622C17.3543 7.80171 17.2112 7.86097 17.062 7.86097L1.92045 7.86097L7.70951 13.651C7.80887 13.7576 7.86296 13.8986 7.86039 14.0444C7.85782 14.1901 7.79879 14.3291 7.69573 14.4322C7.59267 14.5352 7.45363 14.5943 7.3079 14.5969C7.16218 14.5994 7.02114 14.5453 6.91451 14.446Z" fill="black"/>
</svg>
