<svg width="40" height="29" viewBox="0 0 40 29" fill="none" xmlns="http://www.w3.org/2000/svg">
<path d="M40 14.5C40 14.7262 39.9084 14.9432 39.7453 15.1031C39.5822 15.2631 39.3611 15.3529 39.1304 15.3529H0.869565C0.638942 15.3529 0.417765 15.2631 0.25469 15.1031C0.0916148 14.9432 0 14.7262 0 14.5C0 14.2738 0.0916148 14.0568 0.25469 13.8969C0.417765 13.7369 0.638942 13.6471 0.869565 13.6471H39.1304C39.3611 13.6471 39.5822 13.7369 39.7453 13.8969C39.9084 14.0568 40 14.2738 40 14.5ZM0.869565 1.70588H39.1304C39.3611 1.70588 39.5822 1.61602 39.7453 1.45606C39.9084 1.2961 40 1.07916 40 0.852941C40 0.626727 39.9084 0.409778 39.7453 0.249821C39.5822 0.0898634 39.3611 0 39.1304 0H0.869565C0.638942 0 0.417765 0.0898634 0.25469 0.249821C0.0916148 0.409778 0 0.626727 0 0.852941C0 1.07916 0.0916148 1.2961 0.25469 1.45606C0.417765 1.61602 0.638942 1.70588 0.869565 1.70588ZM39.1304 27.2941H0.869565C0.638942 27.2941 0.417765 27.384 0.25469 27.5439C0.0916148 27.7039 0 27.9208 0 28.1471C0 28.3733 0.0916148 28.5902 0.25469 28.7502C0.417765 28.9101 0.638942 29 0.869565 29H39.1304C39.3611 29 39.5822 28.9101 39.7453 28.7502C39.9084 28.5902 40 28.3733 40 28.1471C40 27.9208 39.9084 27.7039 39.7453 27.5439C39.5822 27.384 39.3611 27.2941 39.1304 27.2941Z" fill="black"/>
</svg>
